<svg id="Layer_1" data-name="Layer 1" xmlns="http://www.w3.org/2000/svg" viewBox="0 0 512 512"><defs><style>.cls-1{fill:#3eb38a;}.cls-2{fill:#2d8460;}.cls-3{fill:#ffcf99;}.cls-4{fill:#d39f75;}</style></defs><title>chat-bubbles-flat</title><path class="cls-1" d="M512,282.26v105a72.41,72.41,0,0,1-52.51,69.45v48.71a6.48,6.48,0,0,1-4.07,6,5.5,5.5,0,0,1-2.49.53,6.61,6.61,0,0,1-4.66-1.9l-50.54-50.61h-168a72.25,72.25,0,0,1-72.21-72.21v-105a72.25,72.25,0,0,1,72.21-72.21H439.79A72.25,72.25,0,0,1,512,282.26Z"/><path class="cls-2" d="M426.67,315.08H242.87a6.56,6.56,0,0,1,0-13.13H426.67a6.56,6.56,0,0,1,0,13.13Z"/><path class="cls-2" d="M321.64,367.59H242.87a6.56,6.56,0,1,1,0-13.13h78.77a6.56,6.56,0,1,1,0,13.13Z"/><path class="cls-3" d="M354.46,72.21v105a72.25,72.25,0,0,1-72.21,72.21h-168L63.74,300a6.61,6.61,0,0,1-4.66,1.9,5.5,5.5,0,0,1-2.49-.53,6.48,6.48,0,0,1-4.07-6V246.68A72.41,72.41,0,0,1,0,177.23v-105A72.25,72.25,0,0,1,72.21,0H282.26A72.25,72.25,0,0,1,354.46,72.21Z"/><path class="cls-4" d="M269.13,105H85.33a6.56,6.56,0,1,1,0-13.13H269.13a6.56,6.56,0,1,1,0,13.13Z"/><path class="cls-4" d="M164.1,157.54H85.33a6.56,6.56,0,1,1,0-13.13H164.1a6.56,6.56,0,1,1,0,13.13Z"/></svg>